<?xml version="1.0" encoding="UTF-8"?>
<svg width="926px" height="926px" viewBox="0 0 926 926" version="1.1" xmlns="http://www.w3.org/2000/svg" xmlns:xlink="http://www.w3.org/1999/xlink">
    <!-- Generator: Sketch 48.2 (47327) - http://www.bohemiancoding.com/sketch -->
    <title>icon</title>
    <desc>Created with Sketch.</desc>
    <defs></defs>
    <g id="Page-1" stroke="none" stroke-width="1" fill="none" fill-rule="evenodd">
        <g id="icon" transform="translate(1.000000, 1.000000)">
            <circle id="Oval" stroke="#979797" fill="#27C07A" cx="462" cy="462" r="462"></circle>
            <rect id="Rectangle" fill="#FFFFFF" x="204" y="248" width="516" height="428" rx="60"></rect>
            <path d="M198.261785,249.353944 C175.721742,292.331737 177.259248,323.722693 204.159394,354.587871 L416.81502,475.601763 C444.712564,484.933468 482.359337,484.900257 506.015439,475.591676 C578.30039,440.535431 633.91492,411.933527 672.741896,389.863021 C691.867424,378.991453 706.792694,369.774441 717.408628,362.311921 C722.370299,358.824092 726.278421,355.796477 729.076671,353.310246 C730.247399,352.270059 731.157864,351.382626 731.794463,350.684498 C732.107665,350.341025 732.203483,350.218148 732.079728,350.416115 C738.960516,339.409217 743.440802,323.727312 744.070796,306.028175 C744.728111,287.561463 741.225975,267.924087 733.273207,248.374981 L502.16175,94.7245273 L502.038571,94.6404977 C487.10491,84.4531674 460.296244,84.4531674 445.362583,94.6404977 L444.956441,94.9175566 L198.261778,249.353957 Z" id="Rectangle-2" stroke="#27C07A" stroke-width="50"></path>
            <path d="M317,572 C350.137085,572 409.294895,550.674103 377,537.5 C344.705105,524.325897 309.988045,504.837248 276.85096,504.837248 C243.713875,504.837248 257,518.446176 257,537.5 C257,556.553824 283.862915,572 317,572 Z" id="Oval-2" fill="#27C07A"></path>
            <path d="M601.631301,572.162752 C634.768386,572.162752 693.926196,550.836855 661.631301,537.662752 C629.336406,524.488649 594.619346,505 561.482261,505 C528.345176,505 541.631301,518.608928 541.631301,537.662752 C541.631301,556.716576 568.494216,572.162752 601.631301,572.162752 Z" id="Oval-2" fill="#27C07A" transform="translate(604.987792, 538.581376) scale(-1, 1) translate(-604.987792, -538.581376) "></path>
            <ellipse id="Oval-3" fill="#27C07A" cx="463" cy="666" rx="48" ry="22"></ellipse>
        </g>
    </g>
</svg>