<?xml version="1.0" encoding="UTF-8"?>
<svg width="926px" height="926px" viewBox="0 0 926 926" version="1.1" xmlns="http://www.w3.org/2000/svg" xmlns:xlink="http://www.w3.org/1999/xlink">
    <!-- Generator: Sketch 48.2 (47327) - http://www.bohemiancoding.com/sketch -->
    <title>icon</title>
    <desc>Created with Sketch.</desc>
    <defs></defs>
    <g id="Page-1" stroke="none" stroke-width="1" fill="none" fill-rule="evenodd">
        <g id="icon" transform="translate(1.000000, 1.000000)">
            <circle id="Oval" stroke="#979797" fill="#27C07A" cx="462" cy="462" r="462"></circle>
            <rect id="Rectangle" fill="#FFFFFF" x="204" y="248" width="516" height="428" rx="60"></rect>
            <path d="M198.261785,249.353944 C175.721742,292.331737 177.259248,323.722693 204.159394,354.587871 L416.81502,475.601763 C444.712564,484.933468 482.359337,484.900257 506.015439,475.591676 C578.30039,440.535431 633.91492,411.933527 672.741896,389.863021 C691.867424,378.991453 706.792694,369.774441 717.408628,362.311921 C722.370299,358.824092 726.278421,355.796477 729.076671,353.310246 C730.247399,352.270059 731.157864,351.382626 731.794463,350.684498 C732.107665,350.341025 732.203483,350.218148 732.079728,350.416115 C738.960516,339.409217 743.440802,323.727312 744.070796,306.028175 C744.728111,287.561463 741.225975,267.924087 733.273207,248.374981 L502.16175,94.7245273 L502.038571,94.6404977 C487.10491,84.4531674 460.296244,84.4531674 445.362583,94.6404977 L444.956441,94.9175566 L198.261778,249.353957 Z" id="Rectangle-2" stroke="#27C07A" stroke-width="50"></path>
            <path d="M555.984375,331.779297 L555.984375,373 L547.283203,373 L547.283203,331.779297 L540.515625,331.779297 L540.515625,325.275391 L547.283203,325.275391 L547.283203,319.5625 C547.283203,308.195256 552.468698,302.511719 562.839844,302.511719 C565.740249,302.511719 569.036114,302.995112 572.727539,303.961914 L572.727539,310.817383 C568.831035,309.616205 565.710949,309.015625 563.367188,309.015625 C560.525376,309.015625 558.584478,309.696771 557.544434,311.059082 C556.504389,312.421394 555.984375,314.948224 555.984375,318.639648 L555.984375,325.275391 L567.893555,325.275391 L567.893555,331.779297 L555.984375,331.779297 Z M589.119141,368.561523 C589.119141,369.469731 588.584478,370.458491 587.515137,371.527832 C586.445795,372.597173 585.457036,373.131836 584.548828,373.131836 C583.611323,373.131836 582.61524,372.597173 581.560547,371.527832 C580.505854,370.458491 579.978516,369.469731 579.978516,368.561523 C579.978516,367.624019 580.505854,366.627935 581.560547,365.573242 C582.61524,364.518549 583.611323,363.991211 584.548828,363.991211 C585.457036,363.991211 586.445795,364.518549 587.515137,365.573242 C588.584478,366.627935 589.119141,367.624019 589.119141,368.561523 Z" id="f." fill="#000000"></path>
            <path d="M382.066406,412.574219 L382.066406,266.773438 L410.972656,266.773438 L410.972656,286.988281 C418.394568,271.884039 430.080649,264.332031 446.03125,264.332031 C458.921939,264.332031 469.061812,269.052036 476.451172,278.492188 C483.840532,287.932339 487.535156,300.92049 487.535156,317.457031 C487.535156,335.425871 483.368531,349.748645 475.035156,360.425781 C466.701781,371.102918 455.536528,376.441406 441.539062,376.441406 C430.275985,376.441406 420.087285,372.014367 410.972656,363.160156 L410.972656,412.574219 L382.066406,412.574219 Z M410.972656,345.972656 C418.003941,353.785195 425.490846,357.691406 433.433594,357.691406 C440.529983,357.691406 446.193989,354.257196 450.425781,347.388672 C454.657573,340.520148 456.773438,331.356828 456.773438,319.898438 C456.773438,297.958224 449.709706,286.988281 435.582031,286.988281 C427.053343,286.988281 418.8503,292.489528 410.972656,303.492188 L410.972656,345.972656 Z" id="p" fill="#000000"></path>
            <path d="M520.755859,384.789062 L520.755859,392.567383 C515.83396,393.797858 511.351583,394.413086 507.308594,394.413086 C495.706973,394.413086 486.397984,390.736365 479.381348,383.382812 C472.364711,376.02926 468.856445,366.288147 468.856445,354.15918 C468.856445,341.913025 472.650353,331.644573 480.238281,323.353516 C487.82621,315.062459 497.230413,310.916992 508.451172,310.916992 C518.294971,310.916992 526.219697,314.278775 532.225586,321.002441 C538.231475,327.726108 541.234375,336.595648 541.234375,347.611328 C541.234375,355.7559 539.725601,362.164527 536.708008,366.837402 C533.690415,371.510277 529.544948,373.84668 524.271484,373.84668 C521.488267,373.84668 519.291024,373.187507 517.679688,371.869141 C516.068351,370.550775 514.662115,368.236345 513.460938,364.925781 C508.890602,370.873077 504.217797,373.84668 499.442383,373.84668 C495.194315,373.84668 491.854504,372.34523 489.422852,369.342285 C486.991199,366.33934 485.775391,362.201198 485.775391,356.927734 C485.775391,349.076133 487.870096,342.704126 492.05957,337.811523 C496.249044,332.918921 501.698209,330.472656 508.407227,330.472656 C510.575206,330.472656 514.779266,330.736325 521.019531,331.263672 L521.019531,353.895508 L521.107422,357.982422 C521.107422,363.666044 522.718734,366.507812 525.941406,366.507812 C530.980494,366.507812 533.5,360.516661 533.5,348.53418 C533.5,339.657182 531.18557,332.457547 526.556641,326.935059 C521.927711,321.41257 515.877967,318.651367 508.407227,318.651367 C499.647417,318.651367 492.154816,322.079067 485.929199,328.93457 C479.703582,335.790073 476.59082,344.037061 476.59082,353.675781 C476.59082,363.460986 479.476534,371.415008 485.248047,377.538086 C491.01956,383.661163 498.504837,386.722656 507.704102,386.722656 C511.542011,386.722656 515.892554,386.078131 520.755859,384.789062 Z M511.263672,338.602539 C509.857415,338.045896 508.509772,337.767578 507.220703,337.767578 C499.603478,337.767578 495.794922,343.670839 495.794922,355.477539 C495.794922,362.391636 497.860331,365.848633 501.991211,365.848633 C504.774428,365.848633 507.865217,363.050809 511.263672,357.455078 L511.263672,338.602539 Z" id="@" fill="#000000"></path>
            <path d="M317,572 C350.137085,572 409.294895,550.674103 377,537.5 C344.705105,524.325897 309.988045,504.837248 276.85096,504.837248 C243.713875,504.837248 257,518.446176 257,537.5 C257,556.553824 283.862915,572 317,572 Z" id="Oval-2" fill="#27C07A"></path>
            <path d="M601.631301,572.162752 C634.768386,572.162752 693.926196,550.836855 661.631301,537.662752 C629.336406,524.488649 594.619346,505 561.482261,505 C528.345176,505 541.631301,518.608928 541.631301,537.662752 C541.631301,556.716576 568.494216,572.162752 601.631301,572.162752 Z" id="Oval-2" fill="#27C07A" transform="translate(604.987792, 538.581376) scale(-1, 1) translate(-604.987792, -538.581376) "></path>
            <ellipse id="Oval-3" fill="#27C07A" cx="463" cy="626" rx="48" ry="22"></ellipse>
        </g>
    </g>
</svg>